<?xml version="1.0" encoding="UTF-8"?>
<svg width="24" height="24" viewBox="0 0 24 24" fill="none" xmlns="http://www.w3.org/2000/svg">
  <path d="M12 15.2C13.7673 15.2 15.2 13.7673 15.2 12C15.2 10.2327 13.7673 8.8 12 8.8C10.2327 8.8 8.8 10.2327 8.8 12C8.8 13.7673 10.2327 15.2 12 15.2Z" fill="#666666"/>
  <path d="M9 3L7.17 5H4C2.9 5 2 5.9 2 7V17C2 18.1 2.9 19 4 19H20C21.1 19 22 18.1 22 17V7C22 5.9 21.1 5 20 5H16.83L15 3H9ZM12 17C9.24 17 7 14.76 7 12C7 9.24 9.24 7 12 7C14.76 7 17 9.24 17 12C17 14.76 14.76 17 12 17Z" fill="#666666"/>
</svg> 