<svg width="30" height="30" viewBox="0 0 30 30" fill="none" xmlns="http://www.w3.org/2000/svg">
<circle cx="15" cy="15" r="15" fill="#EDF7F1"/>
<g clip-path="url(#clip0_543_2248)">
<path d="M15 7.5C12.0975 7.5 9.75 9.8475 9.75 12.75C9.75 16.6875 15 22.5 15 22.5C15 22.5 20.25 16.6875 20.25 12.75C20.25 9.8475 17.9025 7.5 15 7.5ZM15 14.625C13.965 14.625 13.125 13.785 13.125 12.75C13.125 11.715 13.965 10.875 15 10.875C16.035 10.875 16.875 11.715 16.875 12.75C16.875 13.785 16.035 14.625 15 14.625Z" fill="#35A865"/>
</g>
<defs>
<clipPath id="clip0_543_2248">
<rect width="18" height="18" fill="white" transform="translate(6 6)"/>
</clipPath>
</defs>
</svg>
