<svg width="46" height="54" viewBox="0 0 46 54" fill="none" xmlns="http://www.w3.org/2000/svg">
<g filter="url(#filter0_d_891_3642)">
<mask id="path-1-outside-1_891_3642" maskUnits="userSpaceOnUse" x="4" y="0" width="38" height="46" fill="black">
<rect fill="white" x="4" width="38" height="46"/>
<path d="M23 2C32.3888 2 40 9.61116 40 19C40 27.3621 33.9625 34.3139 26.0088 35.7344L23 41L19.9902 35.7344C12.037 34.3135 6 27.3618 6 19C6 9.61116 13.6112 2 23 2Z"/>
</mask>
<path d="M23 2C32.3888 2 40 9.61116 40 19C40 27.3621 33.9625 34.3139 26.0088 35.7344L23 41L19.9902 35.7344C12.037 34.3135 6 27.3618 6 19C6 9.61116 13.6112 2 23 2Z" fill="#35A865"/>
<path d="M26.0088 35.7344L25.6572 33.7655L24.7363 33.93L24.2723 34.7421L26.0088 35.7344ZM23 41L21.2636 41.9925L23.0003 45.0308L24.7365 41.9922L23 41ZM19.9902 35.7344L21.7266 34.7419L21.2625 33.93L20.342 33.7655L19.9902 35.7344ZM23 2V4C31.2843 4 38 10.7157 38 19H40H42C42 8.50659 33.4934 0 23 0V2ZM40 19H38C38 26.3762 32.6738 32.5124 25.6572 33.7655L26.0088 35.7344L26.3604 37.7032C35.2511 36.1154 42 28.348 42 19H40ZM26.0088 35.7344L24.2723 34.7421L21.2635 40.0078L23 41L24.7365 41.9922L27.7453 36.7266L26.0088 35.7344ZM23 41L24.7364 40.0075L21.7266 34.7419L19.9902 35.7344L18.2539 36.7269L21.2636 41.9925L23 41ZM19.9902 35.7344L20.342 33.7655C13.3258 32.5121 8 26.3759 8 19H6H4C4 28.3476 10.7483 36.1149 19.6385 37.7032L19.9902 35.7344ZM6 19H8C8 10.7157 14.7157 4 23 4V2V0C12.5066 0 4 8.50659 4 19H6Z" fill="white" mask="url(#path-1-outside-1_891_3642)"/>
</g>
<g clip-path="url(#clip0_891_3642)">
<path d="M22.25 16.75H20.75V11.5H19.25V16.75H17.75V11.5H16.25V16.75C16.25 18.34 17.495 19.63 19.0625 19.7275V26.5H20.9375V19.7275C22.505 19.63 23.75 18.34 23.75 16.75V11.5H22.25V16.75ZM26 14.5V20.5H27.875V26.5H29.75V11.5C27.68 11.5 26 13.18 26 14.5Z" fill="white"/>
</g>
<defs>
<filter id="filter0_d_891_3642" x="0" y="0" width="46" height="53.0312" filterUnits="userSpaceOnUse" color-interpolation-filters="sRGB">
<feFlood flood-opacity="0" result="BackgroundImageFix"/>
<feColorMatrix in="SourceAlpha" type="matrix" values="0 0 0 0 0 0 0 0 0 0 0 0 0 0 0 0 0 0 127 0" result="hardAlpha"/>
<feOffset dy="4"/>
<feGaussianBlur stdDeviation="2"/>
<feComposite in2="hardAlpha" operator="out"/>
<feColorMatrix type="matrix" values="0 0 0 0 0 0 0 0 0 0 0 0 0 0 0 0 0 0 0.2 0"/>
<feBlend mode="normal" in2="BackgroundImageFix" result="effect1_dropShadow_891_3642"/>
<feBlend mode="normal" in="SourceGraphic" in2="effect1_dropShadow_891_3642" result="shape"/>
</filter>
<clipPath id="clip0_891_3642">
<rect width="18" height="18" fill="white" transform="translate(14 10)"/>
</clipPath>
</defs>
</svg>
