<svg width="16" height="15" viewBox="0 0 16 15" fill="none" xmlns="http://www.w3.org/2000/svg">
<path d="M7.27441 0.731445C7.41712 0.442411 7.81306 0.423834 7.9873 0.676758L8.01855 0.731445L9.67285 4.08398V4.08496C9.85366 4.44947 10.1812 4.7164 10.5693 4.82227L10.7393 4.85742L14.4385 5.39551C14.7569 5.44192 14.8959 5.81109 14.709 6.05469L14.667 6.10156L11.9902 8.71191H11.9893C11.8256 8.87194 11.7036 9.06945 11.6328 9.28711C11.5797 9.45035 11.5564 9.62147 11.5645 9.79199L11.583 9.96191V9.96387L12.2158 13.6484C12.2701 13.9659 11.9607 14.2123 11.6719 14.1104L11.6143 14.0859V14.085L8.30469 12.3457C8.15235 12.2656 7.98729 12.214 7.81738 12.1934L7.64648 12.1826C7.47444 12.1826 7.30448 12.2146 7.14453 12.2754L6.98828 12.3457L3.67969 14.085C3.39464 14.2347 3.06477 14.0177 3.07227 13.7109L3.07812 13.6484L3.71094 9.96387V9.96289C3.74952 9.73698 3.73296 9.50506 3.66211 9.28711C3.60889 9.12342 3.52621 8.9713 3.41895 8.83789L3.30469 8.71191L3.30371 8.71094L0.625977 6.10156C0.395399 5.87647 0.500735 5.49549 0.793945 5.4082L0.855469 5.39551L4.55566 4.85742C4.95907 4.79869 5.31436 4.57042 5.53516 4.23535L5.62109 4.08496V4.08398L7.27441 0.731445Z" stroke="#CCCCCC"/>
</svg>
