<svg width="16" height="16" viewBox="0 0 16 16" fill="none" xmlns="http://www.w3.org/2000/svg">
<path fill-rule="evenodd" clip-rule="evenodd" d="M8.66984 0.836039L10.3239 4.18893C10.4576 4.45844 10.715 4.64546 11.0137 4.68884L14.7129 5.22644C15.4631 5.33524 15.7625 6.25684 15.2192 6.7859L12.5418 9.39568C12.4359 9.49929 12.3566 9.62702 12.3108 9.76795C12.2649 9.90888 12.254 10.0588 12.2787 10.2049L12.9116 13.8899C13.0396 14.6366 12.2553 15.2069 11.5847 14.8542L8.27517 13.1141C8.14392 13.0451 7.99786 13.009 7.84957 13.009C7.70128 13.009 7.55522 13.0451 7.42397 13.1141L4.11517 14.8542C3.44388 15.2069 2.66024 14.6366 2.78824 13.8899L3.42113 10.2049C3.44608 10.0588 3.43517 9.90883 3.38934 9.76787C3.34351 9.6269 3.26413 9.49918 3.15801 9.39568L0.47997 6.7859C-0.062608 6.25684 0.23677 5.33524 0.986281 5.22644L4.68619 4.68884C4.98486 4.64546 5.24228 4.45844 5.37597 4.18893L7.0293 0.836039C7.36495 0.156216 8.33419 0.156216 8.66984 0.836039Z" fill="#FFD158"/>
</svg>
